HIERARCHY
ROOT Hips
{
	OFFSET -3.958830 18.904000 13.208200
	CHANNELS 6 Xposition Yposition Zposition Zrotation Yrotation Xrotation 
	JOINT LHipJoint
	{
		OFFSET 0.000000 0.000000 0.000000
		CHANNELS 3 Zrotation Yrotation Xrotation
		JOINT LeftUpLeg
		{
			OFFSET 1.800000 -1.400000 0.085000
			CHANNELS 3 Zrotation Yrotation Xrotation
			JOINT LeftLeg
			{
				OFFSET 2.215000 -6.000000 0.000000
				CHANNELS 3 Zrotation Yrotation Xrotation
				JOINT LeftFoot
				{
					OFFSET 2.500000 -6.900000 0.000000
					CHANNELS 3 Zrotation Yrotation Xrotation
					JOINT LeftToeBase
					{
						OFFSET 0.200000 -0.500000 1.950000
						CHANNELS 3 Zrotation Yrotation Xrotation
						End Site
						{
							OFFSET 0.000000 0.000000 0.000000
						}
					}
				}
			}
		}
	}
	JOINT RHipJoint
	{
		OFFSET 0.000000 0.000000 0.000000
		CHANNELS 3 Zrotation Yrotation Xrotation
		JOINT RightUpLeg
		{
			OFFSET -1.800000 -1.400000 0.085000
			CHANNELS 3 Zrotation Yrotation Xrotation
			JOINT RightLeg
			{
				OFFSET -2.215000 -6.000000 0.000000
				CHANNELS 3 Zrotation Yrotation Xrotation
				JOINT RightFoot
				{
					OFFSET -2.500000 -6.900000 0.000000
					CHANNELS 3 Zrotation Yrotation Xrotation
					JOINT RightToeBase
					{
						OFFSET -0.200000 -0.500000 1.950000
						CHANNELS 3 Zrotation Yrotation Xrotation
						End Site
						{
							OFFSET 0.000000 0.000000 0.000000
						}
					}
				}
			}
		}
	}
	JOINT LowerBack
	{
		OFFSET 0.000000 0.000000 0.000000
		CHANNELS 3 Zrotation Yrotation Xrotation
		JOINT Spine
		{
			OFFSET -0.087000 1.940000 -0.288900
			CHANNELS 3 Zrotation Yrotation Xrotation
			JOINT Spine1
			{
				OFFSET 0.000000 1.950000 0.060000
				CHANNELS 3 Zrotation Yrotation Xrotation
				JOINT Neck
				{
					OFFSET 0.000000 0.000000 0.000000
					CHANNELS 3 Zrotation Yrotation Xrotation
					JOINT Neck1
					{
						OFFSET 0.000000 1.600000 0.340000
						CHANNELS 3 Zrotation Yrotation Xrotation
						JOINT Head
						{
							OFFSET 0.000000 1.667000 -0.240000
							CHANNELS 3 Zrotation Yrotation Xrotation
							End Site
							{
								OFFSET 0.000000 0.000000 0.000000
							}
						}
					}
				}
				JOINT LeftShoulder
				{
					OFFSET 0.000000 0.000000 0.000000
					CHANNELS 3 Zrotation Yrotation Xrotation
					JOINT LeftArm
					{
						OFFSET 2.700000 1.550000 -0.730000
						CHANNELS 3 Zrotation Yrotation Xrotation
						JOINT LeftForeArm
						{
							OFFSET 5.450000 0.000000 0.000000
							CHANNELS 3 Zrotation Yrotation Xrotation
							JOINT LeftHand
							{
								OFFSET 3.450000 0.000000 0.000000
								CHANNELS 3 Zrotation Yrotation Xrotation
								JOINT LeftHandIndex1
								{
									OFFSET 0.750000 0.000000 0.000000
									CHANNELS 3 Zrotation Yrotation Xrotation
									End Site
									{
										OFFSET 0.000000 0.000000 0.000000
									}
								}
							}
						}
					}
				}
				JOINT RightShoulder
				{
					OFFSET 0.000000 0.000000 0.000000
					CHANNELS 3 Zrotation Yrotation Xrotation
					JOINT RightArm
					{
						OFFSET -2.700000 1.550000 -0.730000
						CHANNELS 3 Zrotation Yrotation Xrotation
						JOINT RightForeArm
						{
							OFFSET -5.450000 0.000000 0.000000
							CHANNELS 3 Zrotation Yrotation Xrotation
							JOINT RightHand
							{
								OFFSET -3.450000 0.000000 0.000000
								CHANNELS 3 Zrotation Yrotation Xrotation
								JOINT RightHandIndex1
								{
									OFFSET -0.750000 0.000000 0.000000
									CHANNELS 3 Zrotation Yrotation Xrotation
									End Site
									{
										OFFSET 0.000000 0.000000 0.000000
									}
								}
							}
						}
					}
				}
			}
		}
	}
}
MOTION
Frames: 7
Frame Time: 0.016667
0.217600 12.955180 -9.113820 -72.240975 -61.827160 20.074477 -16.035592 8.888340 5.638883 -29.818585 -21.730228 -64.118111 71.386583 -28.178481 80.246888 3.826628 20.983812 -1.630263 0.700550 0.684540 0.685780 18.271700 -6.452048 5.450248 -52.197788 17.586556 -37.332598 114.939611 -55.450239 27.195181 -2.854863 -10.860704 0.721745 0.297340 -0.303450 0.000470 -3.962456 -1.463227 -10.603711 9.084982 4.543994 66.527178 -16.233490 10.635649 20.248390 10.596962 1.461548 -18.354185 -3.943780 4.297720 67.842053 3.732060 -1.793630 -15.130400 -22.512745 -28.021198 10.550630 -28.449159 -4.907775 0.702617 7.285752 5.522807 -0.165528 -3.428417 2.719618 0.633330 -0.380180 0.439500 0.002510 -0.517786 35.049373 5.945872 -5.423927 12.634349 -20.809517 -53.320946 19.345005 -12.957923 2.995094 -1.742562 0.027770 0.243860 -0.224700 -0.121500 
0.239110 12.998320 -9.108970 -72.438123 -62.686253 19.427330 -16.126804 8.907731 5.651481 -26.651247 -21.588958 -64.131562 69.579265 -29.281639 86.010726 3.984083 21.839957 -1.809326 0.692010 0.652930 0.707880 18.192663 -6.204775 5.528825 -50.512958 18.458233 -38.693908 103.738021 -58.782884 35.773072 -2.924651 -11.246037 0.581655 0.283400 -0.326100 0.001010 -3.810446 -1.919654 -10.680348 6.936198 5.506889 67.938533 -14.026787 10.311995 20.002780 9.569997 1.700663 -18.729651 -3.823713 4.479044 69.463578 5.275810 -1.028120 -16.055250 -22.731292 -29.119030 10.870784 -31.242837 -3.827297 0.163314 8.389929 4.873154 -0.151024 -3.392800 2.734057 0.703380 -0.409560 0.461670 -0.036230 1.823260 36.188352 7.252880 -2.025459 11.884595 -21.808405 -56.243223 20.885378 -14.488616 2.945806 -1.695506 0.004380 0.247780 -0.195200 -0.158580 
0.235210 13.058890 -9.053450 -68.991556 -64.255012 15.417090 -16.289915 8.758166 5.679403 -22.203231 -21.959564 -62.761677 65.861086 -30.513476 98.171350 4.386164 23.251204 -2.069331 0.881870 0.919260 0.838550 18.105172 -5.630265 5.824813 -50.964055 19.400191 -39.836555 82.632830 -58.443165 50.079010 -3.256482 -12.511958 0.208395 0.391680 -0.486030 0.008020 -3.668533 -2.457231 -10.869857 3.967918 6.888842 69.272193 -11.916083 10.122059 21.320588 8.550301 2.827738 -19.688367 -2.176850 4.237370 73.615996 7.280330 0.433340 -19.780240 -23.601942 -31.163092 11.004720 -32.215008 -3.983403 -0.387309 9.570023 4.022396 -0.141209 -3.252215 2.813440 0.753670 -0.511960 0.612660 -0.016270 4.551140 37.279924 8.787901 5.833496 11.871914 -23.155767 -58.242580 21.444239 -16.245199 2.897999 -1.764646 0.107030 0.211800 -0.314230 -0.160650 
0.240080 13.106430 -9.017700 -68.587794 -64.474837 14.676012 -16.401018 8.716706 5.804206 -14.839091 -22.125396 -60.645207 62.549549 -31.557406 108.978989 4.682502 24.234209 -2.199335 1.024630 1.119720 0.947170 18.024751 -5.324521 5.831609 -47.591269 19.527413 -39.798361 59.379609 -54.501811 64.915198 -3.668381 -14.416052 -0.280575 0.481900 -0.588080 -0.015600 -3.521705 -2.987688 -10.987252 2.098698 6.193144 70.635023 -9.978417 9.702912 22.275898 7.871909 2.956401 -21.150408 -3.201118 4.990184 77.584519 8.242640 1.220970 -23.102300 -25.078319 -33.600526 11.298338 -33.494263 -3.958941 -1.468533 12.926049 2.224754 -0.275537 -3.115530 2.857589 0.816300 -0.598050 0.736580 0.018960 7.557577 39.531815 9.964863 10.853649 11.686348 -24.081257 -54.929570 19.537117 -14.895454 2.916046 -1.797112 0.151730 0.253150 -0.411150 -0.162020 
0.199590 13.082510 -8.972560 -69.619531 -64.716818 15.431376 -16.474491 8.856144 6.019431 -7.890023 -22.262773 -59.217188 58.911336 -31.648698 117.303750 4.798669 24.428173 -2.195668 1.107490 1.208950 1.027190 17.955305 -5.463490 5.451399 -42.218633 18.499914 -41.149235 34.438051 -45.974590 80.597881 -3.915705 -16.245588 -0.746397 0.515980 -0.643960 -0.006710 -3.407970 -3.286420 -10.945567 2.564779 4.726334 71.271959 -8.254610 9.620706 21.778311 7.400248 3.149458 -21.495941 -3.150687 4.598029 80.851797 8.432820 1.259710 -24.302740 -28.033132 -34.028356 10.699059 -33.767380 -5.192686 -3.329859 17.166228 -1.971133 -1.194190 -3.022068 2.948988 0.842440 -0.639000 0.800300 0.037280 11.701228 39.586240 10.705581 15.359173 11.090252 -23.432876 -51.236486 18.457598 -13.478688 2.877728 -1.789755 0.187600 0.253060 -0.470040 -0.165930 
0.161430 13.012680 -8.954180 -70.362789 -65.861170 16.648196 -16.543958 9.248796 6.405229 -1.348720 -22.333235 -59.043240 55.901261 -31.162494 122.216155 4.781419 24.079730 -2.109272 1.109720 1.204400 1.052810 17.856716 -6.202894 4.493948 -34.153267 15.714160 -43.243124 12.947480 -30.046272 88.103858 -3.408598 -15.194859 -0.589724 0.506470 -0.654830 0.004120 -3.280214 -3.354246 -10.680025 2.371446 4.324237 70.864746 -6.610103 10.217471 20.540315 6.873778 3.782853 -21.595005 -1.016836 2.747753 82.764331 7.362460 1.498000 -22.815640 -29.794758 -33.682907 9.772882 -33.601082 -7.198627 -5.703040 20.240354 -7.705179 -2.768020 -2.981459 3.011969 0.824100 -0.620550 0.801280 0.037880 14.710591 38.852705 11.530612 19.796610 10.413167 -20.404024 -42.922984 15.639087 -10.067288 2.818482 -1.760476 0.197710 0.225470 -0.490260 -0.175260 
0.125330 12.963530 -8.894720 -71.030612 -68.369903 17.095963 -16.529957 9.975381 6.517105 2.955791 -20.761199 -55.686400 51.457874 -26.895168 126.052082 4.317371 22.346857 -1.880335 1.176310 1.261930 1.162030 17.758632 -7.184144 3.535806 -25.366875 12.368287 -43.280322 -3.671024 -12.124739 83.013725 -2.557842 -11.918500 0.147016 0.568660 -0.689340 -0.016190 -3.153889 -3.433115 -10.172559 1.202722 4.625847 70.426483 -5.540422 10.740520 20.718971 6.638585 3.943661 -21.365845 -0.400241 2.107705 85.057365 6.319910 2.341710 -24.792800 -30.965191 -33.386658 8.300996 -33.055216 -11.118637 -8.064444 24.157187 -11.241952 -4.592167 -2.980691 2.947867 0.879530 -0.641260 0.840440 0.029120 16.327738 38.439790 12.082147 22.575938 10.664684 -14.634830 -31.405377 9.143386 -5.308320 2.782866 -1.565159 0.160870 0.286570 -0.518110 -0.223150 
